<mxfile host="app.diagrams.net" modified="2023-11-24T03:05:24.302Z" agent="Mozilla/5.0 (Macintosh; Intel Mac OS X 10_15_7) AppleWebKit/537.36 (KHTML, like Gecko) Chrome/117.0.0.0 Safari/537.36" version="22.1.3" etag="wIC3r7sY2Y04HPiwwh-W" type="github">
  <diagram name="第 1 页" id="Vzw8TE7uBlv6f_2ABxzk">
    <mxGraphModel>
      <root>
        <mxCell id="0" />
        <mxCell id="1" parent="0" />
      </root>
    </mxGraphModel>
  </diagram>
</mxfile>
